<svg width="42" height="42" viewBox="0 0 42 42" fill="none" xmlns="http://www.w3.org/2000/svg">
<path d="M35.2163 14.994L21.6503 6.59403C21.4403 6.46803 21.2093 6.40503 20.9783 6.40503C20.7473 6.40503 20.5163 6.46803 20.3063 6.59403L6.74034 14.994C6.36234 15.225 6.15234 15.624 6.15234 16.065V34.566C6.15234 35.259 6.71934 35.826 7.41234 35.826H34.5443C35.2373 35.826 35.8043 35.259 35.8043 34.566V16.065C35.8253 15.624 35.5943 15.225 35.2163 14.994ZM33.7253 33.726H8.27334V16.527L20.9993 8.65203L33.7253 16.527V33.726Z" fill="#1A1A1A"/>
<path d="M18.6264 21.462L13.9434 26.145C13.9224 26.166 13.9014 26.187 13.9014 26.208C13.8804 26.229 13.8594 26.25 13.8384 26.25C13.4184 26.67 13.4184 27.321 13.8384 27.741L16.6314 30.534C17.0514 30.954 17.7024 30.954 18.1224 30.534C18.5424 30.114 18.5424 29.463 18.1224 29.043L16.0644 26.985L16.9254 26.124L18.0174 27.216C18.4374 27.636 19.0884 27.636 19.5084 27.216C19.9284 26.796 19.9284 26.145 19.5084 25.725L18.4164 24.633L20.1174 22.932C20.8524 23.394 21.7134 23.625 22.5534 23.625C23.7294 23.625 24.9264 23.184 25.8294 22.281C27.6354 20.475 27.6354 17.556 25.8294 15.75C24.9264 14.847 23.7504 14.406 22.5534 14.406C21.3564 14.406 20.1804 14.847 19.2774 15.75C17.7234 17.304 17.5134 19.677 18.6264 21.462ZM20.7684 17.241C21.2514 16.758 21.8814 16.506 22.5534 16.506C23.2254 16.506 23.8554 16.758 24.3384 17.241C25.3254 18.228 25.3254 19.824 24.3384 20.811C23.8554 21.294 23.2254 21.546 22.5534 21.546C21.8814 21.546 21.2514 21.294 20.7684 20.811C19.7814 19.824 19.7814 18.228 20.7684 17.241Z" fill="#1A1A1A"/>
</svg>
