<svg width="42" height="42" viewBox="0 0 42 42" fill="none" xmlns="http://www.w3.org/2000/svg">
<path d="M35.2163 14.994L21.6503 6.59403C21.4403 6.46803 21.2093 6.40503 20.9783 6.40503C20.7473 6.40503 20.5163 6.46803 20.3063 6.59403L6.74034 14.994C6.36234 15.225 6.15234 15.624 6.15234 16.065V34.566C6.15234 35.259 6.71934 35.826 7.41234 35.826H12.4733H29.4623H34.5233C35.2163 35.826 35.7833 35.259 35.7833 34.566V16.065C35.8253 15.624 35.5943 15.225 35.2163 14.994ZM14.7623 33.726C15.4133 29.526 17.9333 26.271 20.8523 26.166C20.8943 26.166 20.9573 26.166 20.9993 26.166C21.0413 26.166 21.1043 26.166 21.1463 26.166C24.0653 26.271 26.5853 29.526 27.2363 33.726H14.7623ZM17.8703 20.916C17.8703 19.173 19.2773 17.766 21.0203 17.766C22.7633 17.766 24.1703 19.173 24.1703 20.916C24.1703 22.617 22.8053 24.003 21.1253 24.066C21.0833 24.066 21.0413 24.066 21.0203 24.066C20.9783 24.066 20.9573 24.066 20.9153 24.066C19.2143 24.003 17.8703 22.617 17.8703 20.916ZM33.7253 33.726H29.3573C28.8533 29.778 26.9213 26.523 24.3173 24.99C25.4933 24.024 26.2493 22.554 26.2493 20.916C26.2493 18.018 23.8973 15.666 20.9993 15.666C18.1013 15.666 15.7493 18.018 15.7493 20.916C15.7493 22.554 16.5053 24.024 17.6813 24.99C15.0773 26.523 13.1453 29.778 12.6413 33.726H8.27334V16.527L20.9993 8.65203L33.7253 16.527V33.726Z" fill="#1A1A1A"/>
</svg>
