<svg width="42" height="42" viewBox="0 0 42 42" fill="none" xmlns="http://www.w3.org/2000/svg">
<path d="M21.0195 17.7658C22.7625 17.7658 24.1695 19.1728 24.1695 20.9158C24.1695 22.6588 22.7625 24.0658 21.0195 24.0658C19.2765 24.0658 17.8695 22.6588 17.8695 20.9158C17.8695 19.1728 19.2765 17.7658 21.0195 17.7658ZM21.0195 15.6658C18.1215 15.6658 15.7695 18.0178 15.7695 20.9158C15.7695 23.8138 18.1215 26.1658 21.0195 26.1658C23.9175 26.1658 26.2695 23.8138 26.2695 20.9158C26.2695 18.0178 23.9175 15.6658 21.0195 15.6658Z" fill="#ED3232"/>
<path d="M21.0011 26.1659C23.9831 26.1659 26.5871 29.4629 27.2381 33.7259H14.7641C15.4151 29.4629 18.0191 26.1659 21.0011 26.1659ZM21.0011 24.0659C16.3181 24.0659 12.4961 29.3369 12.4961 35.8259H29.4851C29.5061 29.3159 25.6841 24.0659 21.0011 24.0659Z" fill="#ED3232"/>
<path d="M20.9979 8.65179L33.7239 16.5268V33.7258H8.27188V16.5268L20.9979 8.65179ZM20.9979 6.40479C20.7669 6.40479 20.5359 6.46779 20.3259 6.59379L6.75988 14.9938C6.38188 15.2248 6.17188 15.6238 6.17188 16.0648V34.5658C6.17188 35.2588 6.73888 35.8258 7.43188 35.8258H34.5639C35.2569 35.8258 35.8239 35.2588 35.8239 34.5658V16.0648C35.8239 15.6238 35.5929 15.2248 35.2359 14.9938L21.6699 6.59379C21.4599 6.46779 21.2289 6.40479 20.9979 6.40479Z" fill="#1A1A1A"/>
</svg>
