<svg width="42" height="42" viewBox="0 0 42 42" fill="none" xmlns="http://www.w3.org/2000/svg">
<path d="M29.1825 25.3178H26.241V18.1742C26.241 17.4809 25.6738 16.9136 24.9804 16.9136H16.9964C16.3031 16.9136 15.7358 17.4809 15.7358 18.1742V25.3178H12.8153C12.122 25.3178 11.5547 25.8851 11.5547 26.5784V34.5624C11.5547 35.2557 12.122 35.823 12.8153 35.823H20.7993C20.8623 35.823 20.9464 35.823 21.0094 35.802C21.0725 35.823 21.1565 35.823 21.2195 35.823H29.2035C29.8969 35.823 30.4642 35.2557 30.4642 34.5624V26.5784C30.4431 25.8851 29.8969 25.3178 29.1825 25.3178ZM17.8368 19.0146H24.14V25.3178H21.1985H20.7783H17.8368V19.0146ZM13.6557 27.4188H16.9964H19.9379V33.7422H13.6347V27.4188H13.6557ZM28.3421 33.7422H22.0389V27.4188H24.9804H28.3421V33.7422Z" fill="#ED3232"/>
<path d="M20.9897 8.65635L33.722 16.5353V33.7429H8.2573V16.5353L20.9897 8.65635ZM20.9897 6.38721C20.7586 6.38721 20.5274 6.45024 20.3173 6.5763L6.74454 14.9805C6.36636 15.2116 6.15625 15.6108 6.15625 16.052V34.5623C6.15625 35.2556 6.72353 35.8229 7.41688 35.8229H34.5625C35.2558 35.8229 35.8231 35.2556 35.8231 34.5623V16.0731C35.8231 15.6318 35.592 15.2326 35.2348 15.0015L21.662 6.59731C21.4519 6.45024 21.2208 6.38721 20.9897 6.38721Z" fill="black"/>
</svg>
