<svg width="42" height="42" viewBox="0 0 42 42" fill="none" xmlns="http://www.w3.org/2000/svg">
<path d="M35.2163 14.9938L21.6503 6.59379C21.4403 6.46779 21.2093 6.40479 20.9783 6.40479C20.7473 6.40479 20.5163 6.46779 20.3063 6.59379L6.74034 14.9938C6.36234 15.2248 6.15234 15.6238 6.15234 16.0648V34.5658C6.15234 35.2588 6.71934 35.8258 7.41234 35.8258H12.7883H20.7683H21.1883H29.1683H34.5233C35.2163 35.8258 35.7833 35.2588 35.7833 34.5658V16.0648C35.8253 15.6238 35.5943 15.2248 35.2163 14.9938ZM24.1493 25.3258H21.2093H20.7893H17.8493V19.0258H24.1493V25.3258ZM17.0093 27.4258H19.9493V33.7258H13.6493V27.4258H17.0093ZM22.0703 33.7258V27.4258H24.9893H28.3493V33.7258H22.0703ZM33.7253 33.7258H30.4493V26.5858C30.4493 25.8928 29.8823 25.3258 29.1893 25.3258H26.2493V18.1858C26.2493 17.4928 25.6823 16.9258 24.9893 16.9258H17.0093C16.3163 16.9258 15.7493 17.4928 15.7493 18.1858V25.3258H12.8303C12.1373 25.3258 11.5703 25.8928 11.5703 26.5858V33.7258H8.27334V16.5268L20.9993 8.65179L33.7253 16.5268V33.7258Z" fill="#1A1A1A"/>
</svg>
