<svg width="42" height="42" viewBox="0 0 42 42" fill="none" xmlns="http://www.w3.org/2000/svg">
<path d="M34.3119 14.4481L35.0889 14.0701C35.5299 13.8601 35.8029 13.4191 35.8029 12.9361V7.39208C35.8029 6.69908 35.2359 6.13208 34.5429 6.13208L20.9979 6.17408L7.43188 6.13208C6.73888 6.13208 6.17188 6.69908 6.17188 7.39208V12.9361C6.17188 13.4191 6.44487 13.8601 6.88587 14.0701L7.66287 14.4481C8.10387 14.6581 8.37688 15.0991 8.37688 15.5821V21.0001V26.4181C8.37688 26.9011 8.10387 27.3421 7.66287 27.5521L6.88587 27.9301C6.44487 28.1401 6.17188 28.5811 6.17188 29.0641V34.6081C6.17188 35.3011 6.73888 35.8681 7.43188 35.8681L20.9979 35.8261L34.5639 35.8681C35.2569 35.8681 35.8239 35.3011 35.8239 34.6081V29.0641C35.8239 28.5811 35.5509 28.1401 35.1099 27.9301L34.3329 27.5521C33.8919 27.3421 33.6189 26.9011 33.6189 26.4181V21.0001V15.5821C33.5979 15.0991 33.8709 14.6581 34.3119 14.4481ZM31.4979 21.0001V26.4181C31.4979 27.7201 32.2539 28.8961 33.4299 29.4631L33.7239 29.6101V33.7891L20.9979 33.7471L8.27188 33.7891V29.6101L8.56587 29.4631C9.74187 28.9171 10.4979 27.7201 10.4979 26.4181V21.0001V15.5821C10.4979 14.2801 9.74187 13.1041 8.56587 12.5371L8.27188 12.3901V8.23208L20.9979 8.27408L33.7239 8.23208V12.4111L33.4299 12.5581C32.2539 13.1041 31.4979 14.3011 31.4979 15.6031V21.0001Z" fill="#1A1A1A"/>
<path d="M26.8329 14.7842H15.1359C14.5479 14.7842 14.0859 15.2462 14.0859 15.8342C14.0859 16.4222 14.5479 16.8842 15.1359 16.8842H26.8119C27.3999 16.8842 27.8619 16.4222 27.8619 15.8342C27.8619 15.2462 27.3999 14.7842 26.8329 14.7842Z" fill="#1A1A1A"/>
<path d="M26.8329 19.9502H15.1359C14.5479 19.9502 14.0859 20.4122 14.0859 21.0002C14.0859 21.5882 14.5479 22.0502 15.1359 22.0502H26.8119C27.3999 22.0502 27.8619 21.5882 27.8619 21.0002C27.8619 20.4122 27.3999 19.9502 26.8329 19.9502Z" fill="#1A1A1A"/>
<path d="M26.8329 25.1162H15.1359C14.5479 25.1162 14.0859 25.5782 14.0859 26.1662C14.0859 26.7542 14.5479 27.2162 15.1359 27.2162H26.8119C27.3999 27.2162 27.8619 26.7542 27.8619 26.1662C27.8619 25.5782 27.3999 25.1162 26.8329 25.1162Z" fill="#1A1A1A"/>
</svg>
